<svg id="Ebene_1" data-name="Ebene 1" xmlns="http://www.w3.org/2000/svg" xmlns:xlink="http://www.w3.org/1999/xlink" viewBox="0 0 297.33 379.85"><defs><style>.cls-1{fill:url(#Unbenannter_Verlauf_81);}.cls-2{fill:url(#Unbenannter_Verlauf_42);}.cls-3{fill:url(#Unbenannter_Verlauf_145);}.cls-4{font-size:92px;fill:#666;font-family:FranklinGothic-Demi, Franklin Gothic Demi;letter-spacing:0.13em;}.cls-5{letter-spacing:0.11em;}.cls-6{fill:#ffd01c;}.cls-7{fill:url(#Unbenannter_Verlauf_62);}.cls-8{fill:url(#Unbenannter_Verlauf_131);}.cls-9{fill:url(#Unbenannter_Verlauf_62-2);}.cls-10{fill:url(#Unbenannter_Verlauf_25);}</style><linearGradient id="Unbenannter_Verlauf_81" x1="20.03" y1="207.27" x2="63.94" y2="207.27" gradientUnits="userSpaceOnUse"><stop offset="0" stop-color="red"/><stop offset="1" stop-color="#c12700"/></linearGradient><linearGradient id="Unbenannter_Verlauf_42" x1="248.9" y1="215.59" x2="364.78" y2="241.79" gradientTransform="translate(459.16 -120.62) rotate(76.99)" gradientUnits="userSpaceOnUse"><stop offset="0" stop-color="#1b4dd9"/><stop offset="1" stop-color="#37006a"/></linearGradient><linearGradient id="Unbenannter_Verlauf_145" x1="183" y1="138.55" x2="257.47" y2="138.55" gradientUnits="userSpaceOnUse"><stop offset="0" stop-color="#00a800"/><stop offset="1" stop-color="#1e4f00"/></linearGradient><linearGradient id="Unbenannter_Verlauf_62" x1="25.88" y1="147.02" x2="32.92" y2="147.02" gradientUnits="userSpaceOnUse"><stop offset="0" stop-color="#ff0"/><stop offset="1" stop-color="#f7931e"/></linearGradient><linearGradient id="Unbenannter_Verlauf_131" x1="25.87" y1="154.78" x2="32.94" y2="154.78" gradientUnits="userSpaceOnUse"><stop offset="0" stop-color="#f60500"/><stop offset="1" stop-color="#ed0b00"/></linearGradient><linearGradient id="Unbenannter_Verlauf_62-2" x1="191.83" y1="18.01" x2="203.56" y2="18.01" xlink:href="#Unbenannter_Verlauf_62"/><linearGradient id="Unbenannter_Verlauf_25" x1="191.68" y1="30.85" x2="203.65" y2="30.85" gradientUnits="userSpaceOnUse"><stop offset="0" stop-color="#249a00"/><stop offset="1" stop-color="#169100"/></linearGradient></defs><title>bwlbuch</title><rect class="cls-1" x="20.03" y="136.27" width="43.91" height="142"/><rect class="cls-1" x="20.03" y="136.27" width="43.91" height="142"/><rect class="cls-2" x="195.59" y="192.78" width="219.64" height="71.18" transform="translate(-167.84 408.8) rotate(-76.99)"/><rect class="cls-3" x="183" width="74.47" height="277.11"/><text class="cls-4" transform="translate(0 351.63)"> <tspan class="cls-5" x="34.5" y="0">B</tspan><tspan x="104.89" y="0">WL</tspan></text><text x="-182" y="-65.73"></text><rect class="cls-6" x="256.46" y="313.88" width="54.67" height="14.01" transform="translate(-97.64 -123.97) rotate(13.74)"/><rect class="cls-6" x="192.67" y="249.72" width="54.67" height="18.22"/><rect class="cls-6" x="27.08" y="260.11" width="30" height="8.17"/><rect class="cls-6" x="26.96" y="249.4" width="30" height="8.17"/><rect class="cls-6" x="260.46" y="297.5" width="54.67" height="14.01" transform="translate(-101.41 -125.38) rotate(13.74)"/><rect class="cls-7" x="25.88" y="136.21" width="7.04" height="21.63"/><polygon class="cls-8" points="25.87 157.84 32.94 157.84 29.4 151.72 25.87 157.84"/><rect class="cls-9" x="191.83" width="11.73" height="36.02"/><polygon class="cls-10" points="191.68 36.03 203.65 36.03 197.66 25.67 191.68 36.03"/></svg>